<svg xmlns="http://www.w3.org/2000/svg" xml:space="preserve" width="300" height="11520" viewBox="0 0 79.375 3048"><path fill="#BDE8FE" d="M70.031 1.218a24 24 0 0 1 2.545 2.894l.694.91.36.474a197 197 0 0 0 2.264 2.884 72 72 0 0 1 2.34 3.157c-1.95-.315-3.88-.725-5.806-1.16l-.74-.155c-.972-.225-1.773-.45-2.633-.96-.558-1.022-.302-1.908-.082-3.017.06-.328.06-.328.124-.664.132-.667.275-1.334.42-1.998.051-.23.101-.457.152-.696q.179-.834.362-1.669"/><path fill="#febfc0" d="M0 0c4.15 3.71 6.99 8.21 10.06 12.81 4.63 6.86 9.35 13.61 14.34 20.2 2.87 3.85 5.29 7.78 7.6 11.99-8.41-2.43-16.72-5.15-25-8-1-.34-2.01-.68-3.04-1.04C-.91 34.19-4.48 32.81-7 28c-.55-5.41 1.04-9.6 2.94-14.56C-1.57 6.85-1.57 6.85 0 0" style="fill:#bde8fe;fill-opacity:1" transform="translate(69.502 32.896)scale(.26458)"/><path fill="#febfc0" d="M0 0c2.99 3.63 5.63 7.37 8.2 11.3.38.6.77 1.2 1.18 1.81 1.25 1.92 2.5 3.84 3.74 5.77 1.71 2.61 3.42 5.23 5.13 7.85.41.64.83 1.27 1.25 1.93 3.58 5.47 7.2 10.92 10.91 16.3C33 48.78 33 48.78 33 51c-6.65-2.62-13.19-5.49-19.74-8.34-1.59-.69-3.19-1.38-4.78-2.06q-3.465-1.485-6.93-3c-1.06-.45-1.06-.45-2.15-.91-3.76-1.66-6.43-3-8.4-6.69-.72-5.87.89-9.85 3.38-15C-3.29 10.05-1.37 5.31 0 0" style="fill:#bde8fe;fill-opacity:1" transform="translate(68.973 64.606)scale(.26458)"/><path fill="#febfc0" d="M0 0c2.95 3.53 5.36 7.11 7.65 11.09.34.58.68 1.16 1.02 1.76.72 1.24 1.44 2.48 2.16 3.73a4899 4899 0 0 0 6.81 11.72c4.06 6.93 8.29 13.75 12.6 20.53.5.79 1 1.58 1.51 2.4.44.69.88 1.37 1.33 2.08C34 55 34 55 34 57c-4.63-1.68-8.79-4.02-13.06-6.44-5.13-2.88-10.27-5.75-15.46-8.52-.91-.49-1.81-.98-2.74-1.48-1.76-.94-3.51-1.88-5.28-2.8-.8-.44-1.6-.87-2.42-1.31-1.07-.57-1.07-.57-2.15-1.14C-9.33 33.77-10.6 32.3-12 30c0-6.41 2.96-11.25 6-16.69.92-1.67 1.84-3.34 2.75-5.01.41-.73.81-1.46 1.23-2.21C-1.03 4.06-.46 2.2 0 0" style="fill:#bde8fe;fill-opacity:1" transform="translate(68.444 96.226)scale(.26458)"/><path fill="#febfc0" d="M0 0c2.94 3.5 5.25 7.01 7.43 11.02.32.58.63 1.15.96 1.75 1.02 1.86 2.03 3.73 3.05 5.61 1.42 2.61 2.85 5.22 4.28 7.83.36.66.72 1.31 1.09 1.99 3.98 7.26 8.08 14.47 12.2 21.65.5.88 1 1.75 1.51 2.65.44.75.87 1.51 1.31 2.28 1.24 2.35 2.22 4.74 3.17 7.22-4.53-1.57-8.3-4.04-12.25-6.69-5.37-3.55-10.8-6.96-16.36-10.23-1.13-.67-2.25-1.33-3.42-2.02-2.25-1.32-4.5-2.63-6.77-3.93-1.03-.61-2.07-1.22-3.13-1.84-.93-.54-1.86-1.08-2.82-1.63-3.27-2.41-4.07-4.47-4.67-8.42.58-4.51 2.65-7.4 5.17-11.12C-5.78 10.88-2.72 5.68 0 0" style="fill:#bde8fe;fill-opacity:1" transform="translate(67.916 128.371)scale(.26458)"/><path fill="#febfc0" d="M0 0c2.62 3.26 4.48 6.68 6.37 10.4.48.93.48.93.97 1.89.68 1.33 1.36 2.67 2.04 4.01 5.74 11.28 11.59 22.49 17.73 33.57C36 65.95 36 65.95 36 69c-3.91-1.72-7.17-4.26-10.56-6.81-5.96-4.43-12-8.7-18.13-12.88l-2.43-1.66c-3.55-2.41-7.1-4.8-10.68-7.15-1.62-1.05-1.62-1.05-3.26-2.12-.92-.6-1.84-1.19-2.79-1.79C-14 35-14 35-16 32c-.72-5.94.01-8.89 3.66-13.58q.75-.915 1.53-1.86l3.03-3.9c.72-.94.72-.94 1.46-1.89C-3.8 7.38-1.91 3.75 0 0" style="fill:#bde8fe;fill-opacity:1" transform="translate(67.386 160.087)scale(.26458)"/><path fill="#BDE8FE" d="M66.857 191.993c.654.815 1.125 1.654 1.593 2.585q.228.46.468.932l.5 1.005.522 1.043 1.09 2.182q.69 1.386 1.386 2.77l1.077 2.154q.254.51.51 1.019a83 83 0 0 1 2.908 6.419c-.529 0-.529 0-1.135-.585l-.717-.738c-2.574-2.276-5.344-4.297-8.107-6.337q-1.09-.806-2.18-1.617c-.23-.172-.46-.34-.7-.516l-.652-.486c-.193-.14-.383-.283-.582-.429-.664-.56-.976-1.042-1.15-1.894.219-1.371 1.039-2.207 1.912-3.257l.995-1.23.481-.593a46 46 0 0 0 1.781-2.427m-.795 31.221c.5.749.879 1.48 1.27 2.289.148.307.297.611.447.926q.243.502.482 1.003l.249.513a643 643 0 0 1 4.45 9.47q.719 1.56 1.46 3.11l.305.639q.273.566.55 1.132c.36.751.577 1.24.577 2.085-1.016-.156-1.572-.62-2.35-1.273l-.772-.65-.847-.723-.45-.384q-.941-.806-1.878-1.614a164 164 0 0 0-3.546-2.95 284 284 0 0 1-2.577-2.145l-.436-.368q-.587-.497-1.167-1.006c-.209-.164-.415-.33-.63-.5-.428-.558-.428-.558-.595-1.428.23-1.347.862-1.982 1.786-2.95q.477-.52.95-1.046l.457-.5a25 25 0 0 0 1.405-1.696q.17-.22.344-.45c.286-.484.405-.933.516-1.484m-.529 32.019c.746.746 1.061 1.661 1.474 2.62l.283.647q.465 1.063.92 2.125c.432.984.86 1.971 1.292 2.958q.164.375.33.76 1.114 2.549 2.25 5.087l.299.67c.378.846.76 1.696 1.14 2.542l.778 1.739.235.518c.524 1.175.524 1.175.524 1.765-.807.14-1.368.148-2.06-.32a47 47 0 0 1-1.644-1.532q-.725-.664-1.455-1.323l-.754-.688a108 108 0 0 0-1.744-1.545 139 139 0 0 1-3.074-2.778 84 84 0 0 0-2.35-2.083c-2.114-1.86-2.114-1.86-2.497-3.307.31-1.302.965-1.815 1.928-2.706 1.588-1.511 2.966-3.287 4.125-5.15m-.529 32.011c.735.736 1.032 1.625 1.426 2.57q.131.315.267.634l.87 2.072a1344 1344 0 0 0 1.53 3.63 310 310 0 0 0 2.125 4.924l.825 1.89a537 537 0 0 1 1.267 2.87c.14.315.278.627.424.95.272.87.27 1.299-.003 2.156-.743.146-1.127.18-1.852 0-.992-.672-1.807-1.532-2.646-2.381q-.518-.519-1.037-1.035-.823-.824-1.638-1.65a54 54 0 0 0-3.18-2.967c-.704-.619-1.357-1.272-2.016-1.939l-.722-.73-.667-.675-.593-.569c-.627-.659-.83-1.182-.995-2.077.617-1.339 1.704-2.339 2.712-3.39a113 113 0 0 0 3.903-4.283m-.794 31.221a10 10 0 0 1 1 1.876q.134.325.276.662l.293.717.31.751 1 2.426c.111.275.225.548.339.831q1.018 2.473 2.029 4.945l.857 2.088q.58 1.405 1.151 2.815.299.734.603 1.47l.355.885.307.751c.225.725.315 1.254.212 2.008-.956.638-1.255.72-2.382.53-1.553-1.133-2.897-2.594-4.249-3.954l-.537-.531a61 61 0 0 1-2.992-3.236 36 36 0 0 0-1.778-1.855c-.323-.315-.323-.315-.649-.64a99 99 0 0 0-.643-.633l-.693-.709c-.622-.643-.622-.643-1.423-1.143-.342-.931-.273-1.704 0-2.645.92-1.233 2.024-2.242 3.159-3.276q.678-.63 1.35-1.273.417-.394.843-.78c.693-.648 1.167-1.111 1.262-2.08m-.528 32.019a9.5 9.5 0 0 1 1.005 1.931c.135.347.135.347.275.699l.297.759.314.791 1.003 2.55q.341.87.685 1.742l1.022 2.598q.958 2.442 1.944 4.876l.416 1.037q.372.919.749 1.837.157.395.322.804l.278.68c.177.677.14 1.008-.108 1.656-.553.738-.887 1.016-1.786 1.241-2.154-.455-3.662-2.741-5.072-4.31-1.061-1.177-2.149-2.326-3.233-3.48a44 44 0 0 1-2.025-2.283c-.513-.7-.513-.7-1.113-.957v-.53h-.53c-.793-.915-.793-.915-.793-1.587l-.794-.265v-.529l-.53-.264c.207-1.27.474-1.895 1.474-2.718a93 93 0 0 0 3.371-3.003c.185-.172.373-.341.564-.516.918-.854 1.696-1.619 2.265-2.76m-.53 32.01c.685.685.86 1.322 1.193 2.235l.199.532.643 1.762q.46 1.262.923 2.519l.243.667c.614 1.67 1.244 3.334 1.879 4.998l.548 1.447.81 2.117q.378.988.753 1.976.111.293.23.593c.366.97.667 1.807.516 2.85-.6.753-1.074 1.22-1.968 1.587-1.167 0-2.019-.564-2.858-1.347-.18-.212-.362-.42-.547-.637-.307-.355-.307-.355-.622-.715-.59-.704-1.167-1.415-1.744-2.13-1.082-1.341-2.24-2.593-3.42-3.847a57 57 0 0 1-3.154-3.68c-.495-.622-.495-.622-1.088-1.17-.474-.497-.474-.497-.622-1.259.365-2.027 2.538-3.381 4.033-4.64q.495-.417.986-.837l.993-.836c.796-.675 1.495-1.307 2.074-2.185m-.529 31.748c.518.777.788 1.436 1.103 2.31l.339.947.365 1.024q.19.526.38 1.058.501 1.394.998 2.791.795 2.22 1.593 4.437l.548 1.535c.113.32.23.64.346.97l.336.938a85 85 0 0 0 1.45 3.616c.238.831.225 1.257-.05 2.07a10.3 10.3 0 0 1-2.117 1.852c-1.15-.014-1.698-.135-2.585-.884a25 25 0 0 1-.69-.805 26 26 0 0 0-.376-.43 89 89 0 0 1-1.111-1.321c-.204-.243-.405-.487-.614-.738q-.583-.707-1.159-1.421a138 138 0 0 0-2.032-2.44l-.362-.428-1.53-1.797-.81-.952q-.38-.45-.761-.894c-1.643-1.935-1.643-1.935-1.593-3.472.26-1.116 1.127-1.712 1.982-2.41l.677-.561q.738-.603 1.476-1.201c1.458-1.194 2.876-2.448 4.197-3.794m-.793 31.224c.526.791.79 1.46 1.103 2.355.167.484.167.484.339.976l.365 1.056.38 1.093q.502 1.437.998 2.878.6 1.731 1.204 3.461l.937 2.704.683 1.971c.235.672.478 1.336.73 2.003q.095.25.19.508.263.694.53 1.39c.214.772.259 1.1-.051 1.83-.413.5-.413.5-.91.976-.162.16-.326.318-.495.482-.659.58-.963.656-1.857.751-1.212-.116-1.458-.394-2.228-1.315l-.336-.396a58 58 0 0 1-1.053-1.292l-.344-.428a238 238 0 0 1-1.775-2.265c-.87-1.122-1.773-2.215-2.675-3.31-.16-.19-.315-.381-.477-.577a67 67 0 0 0-2.108-2.479c-1.757-1.995-1.757-1.995-1.831-3.212.233-1.04.497-1.553 1.272-2.28h.53v-.53q.519-.353 1.047-.69c1.215-.829 2.323-1.807 3.45-2.75q.322-.26.649-.529l.574-.478c.17-.138.336-.278.508-.419.442-.486.548-.84.65-1.484m-.529 32.013a7.2 7.2 0 0 1 .937 1.902c.077.225.15.45.23.68l.246.738c.087.257.175.511.262.773q.421 1.243.839 2.49l1.148 3.4a356 356 0 0 0 1.98 5.741l.192.548q.43 1.22.87 2.44c.101.28.2.558.3.846q.13.352.26.717c.158.688.137 1.032-.12 1.685-.966 1.138-2.18 2.5-3.736 2.678-1.225-.161-1.844-1.01-2.582-1.931l-.561-.747c-.206-.264-.416-.529-.63-.804a171 171 0 0 1-1.675-2.188q-.67-.88-1.349-1.754a411 411 0 0 1-4.019-5.308q-.23-.288-.463-.585c-.33-.473-.33-.473-.33-1.002h-.53c-.415-.831-.357-1.466-.265-2.382.63-.777.63-.777 1.323-1.322h.53v-.53c.373-.277.373-.277.926-.61 1.293-.834 2.49-1.766 3.688-2.729l.569-.452.537-.437.484-.389c.452-.452.685-.883.94-1.468m-.53 31.75c.458.685.686 1.167.94 1.931l.235.699.249.76c.087.261.174.52.262.79q.424 1.274.844 2.551l.577 1.74 1.135 3.443q.572 1.739 1.153 3.477.423 1.267.839 2.534c.1.294.198.59.302.895.087.264.171.532.261.804l.225.68c.135.667.104 1.024-.143 1.656-.584.614-.584.614-1.307 1.241-.235.21-.473.416-.717.63-.764.63-1.031.762-2.026.876-1.368-.14-1.863-.897-2.696-1.903q-.67-.837-1.323-1.688l-.487-.63a191 191 0 0 1-4.144-5.627 125 125 0 0 0-2.775-3.696c-.4-.58-.4-.58-.4-1.109h-.529c-.082-.844-.082-.844 0-1.852 1.143-1.368 2.651-2.373 4.07-3.44l.735-.56a99 99 0 0 1 3.143-2.302c.784-.577 1.157-1.032 1.577-1.9m-.529 32.015c.495.74.728 1.301 1 2.14q.138.41.275.833c.096.3.194.596.291.905.101.31.204.62.307.94q.406 1.238.807 2.481l.805 2.472q.623 1.905 1.238 3.815.53 1.65 1.085 3.297l.233.698q.205.627.423 1.249c.373 1.14.505 1.971.15 3.13a12 12 0 0 1-1.603 1.423q-.216.175-.439.36c-1.193.908-2.027 1.05-3.514.863-.5-.304-.5-.304-.86-.778l-.457-.587c-.175-.25-.352-.495-.535-.752l-.333-.466a255 255 0 0 1-1.98-2.799 245 245 0 0 0-2.663-3.73c-4.228-5.835-4.228-5.835-4.02-7.557 1.035-1.217 2.324-2.08 3.623-2.992 1.595-1.135 3.148-2.284 4.646-3.546.463-.341.463-.341.992-.341zm-.529 31.75c.566.849.846 1.67 1.148 2.632l.18.564.585 1.844.404 1.283q.429 1.349.852 2.696.54 1.723 1.093 3.445l.839 2.654q.199.635.402 1.27.284.889.56 1.78l.17.524c.318 1.03.49 1.93.381 3.003-.59.649-.59.649-1.373 1.241-.381.297-.381.297-.773.598-1.804 1.278-1.804 1.278-2.981 1.519-1.726-.328-2.646-2.032-3.615-3.418l-.799-1.196-.894-1.323q-.23-.337-.463-.686c-.968-1.42-1.958-2.823-2.947-4.23l-.442-.63-.416-.59a49 49 0 0 1-.981-1.474c-.392-.68-.392-.68-.985-.923-.275-1.053-.312-1.863 0-2.91 1.014-1.02 2.162-1.76 3.371-2.527 1.03-.662 2.016-1.379 3.011-2.088l1.111-.775c1.487-.953 1.487-.953 2.562-2.283m-.529 31.75c.577.865.852 1.706 1.151 2.688.061.193.122.383.183.582q.295.952.587 1.905l.41 1.323q.429 1.388.852 2.775l1.1 3.556q.425 1.367.842 2.733.202.659.408 1.313.284.916.56 1.833c.059.18.114.36.175.548.268.894.463 1.561.082 2.44-1.338 1.494-3.363 3.22-5.358 3.603-1.584-.36-2.383-1.603-3.209-2.91l-.688-1.061c-.19-.289-.19-.289-.38-.585-.797-1.21-1.617-2.403-2.435-3.596a343 343 0 0 1-3.667-5.442c-.394-.598-.394-.598-.844-1.146-.561-.807-.487-1.405-.352-2.357.947-1.096 2.048-1.868 3.241-2.662l1.122-.762a267 267 0 0 0 3.675-2.53l.585-.404.545-.381.481-.334c.48-.365.48-.365.934-1.13m-.53 31.751c.479.717.685 1.193.923 2.002q.112.365.223.741l.238.807c.082.278.167.556.251.844q.4 1.342.797 2.683l.777 2.617.516 1.738c.429 1.445.863 2.887 1.315 4.326.088.278.172.553.262.839q.244.78.495 1.56c.707 2.268.707 2.268.553 3.538-.749.866-1.707 1.471-2.646 2.117l-.709.497c-.966.633-1.648 1.075-2.812 1.14-1.667-.737-2.572-2.36-3.527-3.836l-.424-.643-1.325-2.037q-.437-.67-.879-1.341a443 443 0 0 1-1.698-2.614 103 103 0 0 0-1.537-2.305l-.342-.503q-.444-.655-.897-1.307c-.492-.992-.576-1.569-.402-2.661.86-1.096 1.985-1.82 3.143-2.572q.254-.17.519-.344.813-.536 1.63-1.069.817-.535 1.63-1.074l1.013-.664c1.69-1.011 1.69-1.011 2.913-2.48m-.529 31.751c.577.867.84 1.7 1.128 2.688.058.193.116.383.174.582q.283.952.561 1.905c.132.442.262.88.392 1.323l.817 2.775q.522 1.778 1.05 3.556.405 1.367.805 2.733l.389 1.313q.272.916.54 1.833l.164.548c.256.892.442 1.564.066 2.44-1.44 1.65-3.927 3.696-6.152 3.968-1.545-.413-2.008-1.33-2.844-2.646-.109-.166-.214-.336-.325-.508a305 305 0 0 1-1.95-3.087 298 298 0 0 0-3-4.673l-.504-.773c-.69-1.058-1.383-2.103-2.14-3.116-.548-.807-.548-.807-.58-1.765.575-1.725 2.035-2.537 3.522-3.424l1.122-.69.593-.365a141 141 0 0 0 3.212-2.072l.619-.4c1.344-.889 1.344-.889 2.341-2.145m-.529 32.014c.71.71.815 1.35 1.096 2.313q.079.273.164.555.265.914.526 1.823l.37 1.27q.389 1.33.773 2.66.493 1.702.99 3.404l.762 2.62.365 1.254.508 1.76c.098.333.193.666.293 1.01.22.834.405 1.64.503 2.498-.516.801-1.347 1.302-2.116 1.852q-.219.153-.44.315-.718.504-1.444.992-.234.158-.471.323c-1.016.656-1.733.963-2.937.751-1.41-.796-2.09-2.185-2.895-3.54q-.453-.75-.91-1.5l-.473-.783a224 224 0 0 0-2.437-3.866 60 60 0 0 0-.447-.701l-.434-.683-.426-.672q-.477-.736-.96-1.468c-.167-.257-.337-.51-.509-.775l-.465-.704c-.567-1.024-.585-1.622-.363-2.77.865-1.077 2.035-1.691 3.207-2.382a131 131 0 0 0 5.244-3.307l.611-.405.569-.38.5-.334a9.5 9.5 0 0 0 1.246-1.13m-.529 31.75c.529.265.529.265.82 1.061q.16.541.315 1.082a239 239 0 0 1 .746 2.559l.397 1.357q.41 1.429.823 2.858c.349 1.22.706 2.439 1.063 3.656q.412 1.404.812 2.813.195.676.395 1.346c.188.63.365 1.26.542 1.89l.172.56c.244.892.31 1.352-.066 2.21-.923 1.132-2.172 1.87-3.373 2.685-.202.138-.4.278-.606.42-1.008.673-1.85 1.168-3.099 1.168-1.41-.598-1.97-1.667-2.728-2.927l-.404-.656q-.445-.722-.881-1.444-.783-1.285-1.577-2.564a719 719 0 0 1-2.665-4.331q-.469-.765-.95-1.522-.217-.34-.439-.693-.19-.3-.386-.603c-.497-1.045-.46-2.125-.288-3.252.351-.706.709-.78 1.42-1.109 1.548-.751 2.974-1.645 4.416-2.58l.746-.475c.717-.46 1.434-.927 2.149-1.392.233-.148.463-.3.701-.453.217-.14.431-.28.654-.426.193-.124.383-.248.582-.375.481-.31.481-.31.709-.863m-.265 31.752c.585.878.792 1.598 1.072 2.617l.153.558c.17.608.336 1.217.506 1.826l.349 1.27q.465 1.673.923 3.347l.94 3.4 1.37 4.968c.093.336.185.67.278 1.014.077.277.154.555.23.844l.196.598c.069.46.069.46-.42 1.214-.956 1.048-2.123 1.773-3.316 2.522l-.661.436c-1.257.797-2.204 1.368-3.736 1.05-1.35-.989-2.08-2.508-2.895-3.936l-.905-1.559q-.235-.4-.473-.815a286 286 0 0 0-2.506-4.172c-.159-.26-.315-.519-.476-.786l-.445-.73-.391-.643c-.368-.598-.368-.598-.82-1.143-.35-.503-.35-.503-.35-1.297h-.529c-.428-.857-.389-1.735-.092-2.64.505-.757 1.092-1.016 1.894-1.445.333-.182.67-.365 1-.55l.558-.31c1.175-.667 2.32-1.376 3.47-2.082l.698-.426c1.54-.95 2.973-1.99 4.378-3.13m-.264 31.75c.522.931.8 1.91 1.08 2.934.053.188.103.373.159.566q.253.925.51 1.85.176.642.355 1.286c.249.9.495 1.796.74 2.696.318 1.15.636 2.304.956 3.453q.369 1.329.733 2.659l.352 1.272q.248.89.49 1.78c.05.176.097.35.15.53.235.884.391 1.545.032 2.405-1.125 1.289-2.686 2.151-4.152 2.993q-.292.175-.598.354c-1.857 1.082-1.857 1.082-2.659 1.151-1.42-.49-2.026-1.278-2.73-2.545q-.149-.262-.307-.527a136 136 0 0 1-.963-1.69l-1.008-1.739q-.334-.571-.667-1.148a118 118 0 0 0-3.17-5.14c-2.003-3.11-2.003-3.11-1.738-4.938.95-1.124 1.998-1.77 3.275-2.447q.565-.312 1.133-.622c.286-.159.286-.159.577-.318 3.958-2.093 3.958-2.093 7.45-4.815m-.529 32.015h.529c.743 2.632 1.484 5.265 2.214 7.9.34 1.222.683 2.447 1.027 3.667q.503 1.77.99 3.543.186.675.38 1.35c.18.629.352 1.261.524 1.891.056.188.112.373.167.564.238.904.3 1.357-.09 2.222-.434.537-.783.865-1.37 1.22q-.261.162-.535.328l-.56.333-.58.347q-.564.34-1.13.675c-.423.25-.839.513-1.251.775-.91.563-1.524.836-2.596.966-2.323-.99-3.596-4.45-4.781-6.567a370 370 0 0 0-1.111-1.969c-.09-.164-.183-.325-.278-.492-.574-1.01-1.17-2-1.791-2.985-.149-.235-.297-.47-.448-.714q-.408-.647-.833-1.286c-.722-1.148-1.196-2.167-1.103-3.55.407-1.165 1.537-1.588 2.571-2.133q.818-.477 1.636-.958a385 385 0 0 1 1.772-1.01c3.517-1.79 3.517-1.79 6.647-4.117m-.265 31.75h.529q1.046 3.844 2.082 7.694l.968 3.571q.47 1.725.932 3.448l.357 1.315q.253.92.497 1.844c.05.18.1.36.154.548.262 1.003.362 1.751.037 2.746-1.241 1.445-3.178 2.355-4.813 3.292-.307.177-.307.177-.62.36-2.02 1.124-2.02 1.124-3.298.846-1.493-1.08-2.26-2.839-3.144-4.416q-.388-.687-.78-1.373-.409-.715-.812-1.434a645 645 0 0 0-2.506-4.374c-.262-.452-.524-.91-.786-1.365-.235-.41-.235-.41-.479-.83-.14-.244-.278-.487-.423-.736-.286-.532-.286-.532-.595-.818-.186-.923-.196-1.725 0-2.646.433-.426.433-.426 1.016-.775q.323-.201.656-.402l.709-.41.706-.413q1.123-.645 2.254-1.275l1.61-.902 1.515-.85q1.1-.618 2.199-1.24l.857-.482c.667-.37.667-.37 1.178-.923m0 31.219h.264l.201.812.778 3.138c.12.473.238.95.355 1.423a429 429 0 0 0 2.273 8.814q.447 1.658.902 3.317.16.603.323 1.202l.153.547c.238.892.418 1.577.042 2.442-1.431 1.331-3.304 2.273-4.976 3.276l-.585.352c-1.91 1.124-1.91 1.124-2.905 1.135-1.302-.513-1.847-1.008-2.5-2.238l-.477-.884q-.249-.472-.495-.947l-.523-.966q-.529-.98-1.054-1.963a164 164 0 0 0-2.243-3.998c-.125-.215-.246-.431-.373-.651a117 117 0 0 0-2.344-3.913c-.413-.77-.474-1.313-.31-2.167.214-.611.214-.611.53-1.059l.793-.264.264-.53h1.059v-.528c.235-.093.468-.188.712-.284 1.576-.677 3.071-1.516 4.58-2.33l.92-.49c2.662-1.236 2.662-1.236 4.636-3.246m-.264 32.014c.529.94.78 1.897 1.055 2.934l.148.567q.246.924.487 1.849l.336 1.286q.354 1.348.704 2.696c.302 1.15.603 2.305.907 3.453q.352 1.33.696 2.659.166.636.336 1.273.234.888.463 1.78l.268 1.021c.142.786.198 1.191-.109 1.913-1.479 1.434-3.564 2.421-5.342 3.44-.225.135-.452.267-.685.405-1.043.585-1.723.913-2.932.95-1.487-.532-2.082-1.895-2.807-3.23l-.254-.467-.537-.984c-.466-.865-.94-1.725-1.41-2.585l-.286-.524a290 290 0 0 0-2.63-4.678l-.389-.677a71 71 0 0 0-1.458-2.455c-.484-.863-.479-1.455-.32-2.424 1.249-1.058 1.249-1.058 2.117-1.058v-.53l.526-.253c2.334-1.143 4.596-2.403 6.861-3.673q1.123-.628 2.254-1.249l.659-.365c.548-.28.548-.28 1.341-.545zm-.265 31.752c.577.865.802 1.672 1.056 2.664q.071.283.148.574.245.938.487 1.879c.11.437.224.87.336 1.307q.353 1.366.703 2.736.453 1.756.908 3.508.352 1.35.696 2.699.165.647.336 1.291.234.905.463 1.81l.143.54c.397 1.584.397 1.584.016 2.423a15 15 0 0 1-1.588 1.109l-.492.304q-.809.491-1.625.968l-.584.347a92 92 0 0 1-1.781 1.008c-.183.109-.368.214-.558.323-.932.503-1.487.704-2.567.717-1.51-.49-2.095-1.847-2.825-3.186l-.254-.457-.807-1.48-.561-1.026a996 996 0 0 1-4.112-7.583l-.402-.746-.352-.654c-.24-.479-.24-.479-.542-.756-.096-1.974-.096-1.974.529-2.91.52-.32 1.06-.612 1.603-.895q.254-.13.51-.265l1.173-.606q1.606-.829 3.21-1.664.863-.45 1.727-.894a251 251 0 0 0 3.736-1.966l.571-.307c.48-.26.48-.26.699-.812m-.265 32.015c.53.264.53.264.787 1.031q.138.516.27 1.04l.148.572q.245.941.487 1.884.166.653.336 1.307.355 1.37.703 2.743.451 1.757.908 3.514.352 1.35.696 2.699.165.65.336 1.296.234.906.463 1.815l.143.537c.246.993.357 1.755.015 2.728-.529.442-1 .775-1.587 1.125l-.492.301q-.806.488-1.625.955l-.59.342q-.891.507-1.79.997c-.281.156-.281.156-.567.318-1.072.569-1.895.944-3.138.725-1.498-.802-2.059-2.326-2.778-3.787l-.836-1.648q-.217-.419-.437-.854c-.852-1.633-1.77-3.231-2.685-4.83q-.402-.701-.8-1.404-.42-.74-.857-1.474l-.439-.767-.402-.685c-.347-.82-.384-1.395-.291-2.278.757-.93 1.582-1.57 2.646-2.117h.529v-.53c.143-.047.283-.097.429-.147 1.738-.643 3.29-1.498 4.886-2.421a23.6 23.6 0 0 1 3.68-1.707c.728-.304 1.281-.746 1.853-1.28m-.001 31.483c.519.923.765 1.857 1.027 2.881l.14.55q.23.898.455 1.795l.318 1.248q.334 1.31.664 2.617.424 1.677.852 3.35.33 1.291.656 2.582.155.617.315 1.233l.436 1.73c.082.329.167.654.252.993.156.767.243 1.41.177 2.188-1.3 1.526-3.577 2.463-5.308 3.408-.418.232-.418.232-.841.473-2.675 1.46-2.675 1.46-4.17 1.146-.846-.722-1.344-1.484-1.86-2.46l-.447-.842c-.156-.296-.312-.593-.47-.9q-.37-.696-.742-1.391l-.502-.948a364 364 0 0 0-2.477-4.588c-.127-.23-.251-.463-.381-.698l-.365-.667a83 83 0 0 0-1.072-1.926q-.177-.316-.362-.64l-.328-.566c-.381-.768-.445-1.268-.254-2.101.725-1.003 1.56-1.477 2.64-2.059.26-.14.519-.278.786-.423q1.912-1.016 3.834-2.016l.802-.42c1.614-.84 3.23-1.662 4.873-2.443.556-.31.932-.635 1.352-1.106m-.264 31.752.529.264c.2.62.37 1.228.526 1.86l.149.588q.245.97.486 1.94l.336 1.343q.356 1.41.704 2.823.45 1.809.908 3.617.351 1.386.696 2.776.165.666.336 1.333.234.933.463 1.868l.142.556c.395 1.624.395 1.624.016 2.463-1.058.83-2.267 1.458-3.44 2.117l-.624.354q-.99.559-1.99 1.101c-.208.12-.42.236-.637.357-1.24.662-2.188 1.074-3.627.834-.868-.733-1.366-1.524-1.89-2.522l-.473-.889q-.246-.477-.498-.955l-.52-.982-1.088-2.058c-.828-1.577-1.67-3.146-2.511-4.718l-.783-1.47c-.159-.294-.315-.59-.48-.895-.14-.262-.277-.524-.422-.794-.281-.566-.281-.566-.596-.857-.1-.728-.1-.728 0-1.587 1.223-1.567 2.977-2.456 4.779-3.21.947-.423 1.852-.926 2.762-1.42 2.124-1.152 2.124-1.152 3.236-1.612a12.4 12.4 0 0 0 2.156-1.199l.609-.418c.463-.31.463-.31.746-.608m-.001 31.219c.54.95.8 1.953 1.066 3.003l.157.59.494 1.92.172.665q.446 1.738.887 3.48.366 1.439.74 2.875.456 1.738.895 3.48.165.66.344 1.322.24.924.468 1.853c.05.182.1.362.15.55.123.513.123.513.183 1.429-.54.857-1.08 1.428-1.965 1.907-.257.14-.257.14-.516.286-.27.14-.27.14-.545.288-.186.1-.37.201-.564.307q-.57.31-1.146.617-.78.421-1.553.854c-2.714 1.509-2.714 1.509-3.765 1.561-1.323-.513-1.823-1.494-2.447-2.696-.162-.299-.162-.299-.326-.606q-.602-1.124-1.195-2.254-.565-1.059-1.125-2.114-.9-1.687-1.791-3.373l-.286-.537-.548-1.038a83 83 0 0 0-1.841-3.312c-.408-.836-.42-1.426-.23-2.326.886-.929 1.722-1.41 2.91-1.852l.265-.53c.465-.208.465-.208 1.09-.428 1.405-.54 2.699-1.214 4.016-1.934a96 96 0 0 1 4.024-2.05c1.31-.683 1.31-.683 1.982-1.937m.265 31.75c.535.944.794 1.94 1.059 2.984l.153.58q.246.951.487 1.902c.055.217.111.431.17.656q.44 1.717.878 3.437.452 1.775.915 3.548c.236.91.466 1.82.699 2.73q.165.656.336 1.31.238.915.465 1.829l.148.548c.183.746.286 1.256.04 1.994-.984 1.342-2.564 2.048-3.995 2.824q-.62.338-1.236.677l-.603.328c-.537.296-1.064.606-1.59.92-1.005.548-1.561.644-2.688.456-1.09-.926-1.744-1.966-2.381-3.225q-.142-.274-.292-.553l-.915-1.778q-.634-1.223-1.273-2.445l-.317-.609a82 82 0 0 0-3.196-5.559c-.81-1.349-1.09-2.246-.887-3.823.937-1.026 1.84-1.503 3.175-1.852v-.53l.474-.174c1.8-.69 3.466-1.537 5.149-2.47l.764-.419c2.53-1.288 2.53-1.288 4.461-3.286m.265 32.015c.53.939.789 1.923 1.056 2.958l.148.574q.246.937.487 1.876l.336 1.304q.354 1.364.704 2.733.452 1.75.907 3.5.353 1.35.696 2.694.166.648.336 1.291.234.903.463 1.807c.072.265.072.265.143.537.397 1.583.397 1.583.016 2.421-.524.418-1.019.762-1.587 1.109l-.493.304q-.809.492-1.624.969-.288.169-.585.346-.885.515-1.78 1.008-.273.162-.559.323c-1.23.664-2.026.847-3.426.44-.789-.633-1.196-1.448-1.678-2.326-.082-.154-.166-.305-.25-.463-.276-.498-.546-.995-.818-1.495l-.564-1.032a1102 1102 0 0 1-4.101-7.562c-.132-.246-.265-.49-.4-.743q-.173-.317-.346-.646c-.26-.46-.545-.905-.839-1.344-.06-.513-.06-.513-.05-1.058q.004-.268.005-.546c.045-.513.045-.513.31-1.307.58-.338 1.145-.627 1.751-.91l1.154-.558.64-.312c1.286-.63 2.559-1.283 3.831-1.94l.76-.386c1.897-.982 3.839-2.048 5.357-3.566m.53 32.014q1.054 3.948 2.098 7.9.48 1.836.973 3.668.472 1.77.937 3.542.175.675.36 1.35.253.946.497 1.892l.156.563c.278 1.103.323 1.786-.259 2.78-.656.509-.656.509-1.487.993l-.455.265q-.487.281-.976.558a71 71 0 0 0-1.625.976q-.554.335-1.114.664-.257.163-.521.326c-.905.526-1.41.714-2.482.733-1.431-.463-2.005-1.678-2.706-2.948q-.218-.388-.44-.788l-.465-.844-.987-1.778-.51-.924c-.848-1.529-1.7-3.05-2.554-4.574l-.471-.844q-.217-.39-.442-.789l-.386-.69a23 23 0 0 0-.812-1.329c-.527-.97-.408-1.674-.352-2.764q1.488-.837 2.976-1.67c.3-.17.596-.336.905-.508a322 322 0 0 1 5.014-2.762c.442-.238.881-.476 1.326-.712.936-.505 1.783-1.01 2.592-1.706.68-.58.68-.58 1.21-.58m-.265 30.956c.537.95.804 1.956 1.082 3.003l.161.59q.259.96.513 1.921l.178.664q.465 1.738.926 3.48c.314 1.198.637 2.394.96 3.59q.372 1.38.736 2.765l.357 1.323q.248.924.49 1.852l.153.55c.278 1.096.304 1.762-.265 2.752-.54.45-.54.45-1.222.86l-.783.468-.905.524-.53.312q-.841.492-1.688.98l-.542.314c-1.802 1.016-1.802 1.016-2.797 1.04-1.023-.506-1.537-.982-2.09-1.974-.135-.235-.267-.47-.405-.712q-.205-.37-.415-.754l-.418-.738c-.606-1.069-1.201-2.143-1.797-3.215a210 210 0 0 0-2.495-4.381l-.481-.826q-.454-.777-.918-1.55c-.765-1.318-1.28-2.27-1.035-3.842.53-.794.53-.794 1.323-1.058l.265-.53c.415-.182.833-.362 1.254-.531 1.275-.558 2.484-1.252 3.707-1.916l.817-.439c1.366-.74 2.718-1.5 4.048-2.302q.352-.209.712-.426c.664-.545.857-.981 1.103-1.794m.265 32.28c.584.875.82 1.706 1.087 2.709l.162.587a519 519 0 0 1 .695 2.593q.469 1.739.93 3.482.477 1.801.97 3.598.373 1.383.738 2.768.177.663.357 1.325.254.926.495 1.855l.156.553c.22.873.27 1.342-.09 2.18-.656.794-1.455 1.252-2.341 1.75l-1.077.616-.532.301c-.659.387-1.291.813-1.931 1.23-1.21.715-1.932.972-3.323.646-1.458-1.434-2.374-3.453-3.34-5.225a180 180 0 0 0-4.093-7.065c-2.272-3.725-2.272-3.725-2.092-5.172h.529q.099-.253.198-.514c.33-.545.33-.545.892-.743l.497-.066v-.53l.598-.325c5.935-2.624 5.935-2.624 10.515-6.553m0 32.014h.529q1.038 3.839 2.069 7.681.48 1.782.963 3.564.466 1.722.926 3.445.175.654.355 1.312.249.917.492 1.839l.15.545c.273 1.037.43 1.974.337 3.045-.815.892-1.887 1.487-2.91 2.117l-.527.328q-.833.504-1.673.995l-.537.32c-1.055.593-1.844.958-3.085.738-1.016-.698-1.585-1.373-2.17-2.45q-.22-.407-.452-.825l-.47-.876-.99-1.802-.487-.892a114 114 0 0 0-1.881-3.26l-.315-.536a168 168 0 0 0-1.54-2.561l-.59-.985c-.175-.283-.347-.563-.524-.854-.44-.987-.518-1.617-.37-2.686.714-.85 1.492-1.352 2.46-1.878a198 198 0 0 1 1.707-.932c2.019-1.114 4.03-2.233 5.987-3.458q.254-.155.514-.317c.76-.482 1.402-.977 2.032-1.617m.264 30.956c.527.937.8 1.921 1.074 2.95q.079.282.156.572.257.932.508 1.868l.355 1.299.738 2.728q.47 1.744.947 3.487.366 1.342.728 2.688.174.642.352 1.283.245.902.487 1.802l.145.532c.273 1.027.434 1.955.331 3.016-.622.601-.622.601-1.487 1.16q-.229.144-.466.298c-.492.315-.99.62-1.487.924l-.987.632q-.482.297-.965.59c-.291.18-.582.357-.881.54-1.056.428-1.633.389-2.723.09-.696-.577-1.103-1.257-1.55-2.038l-.442-.762c-.156-.272-.312-.542-.471-.822l-.998-1.723q-.253-.443-.516-.897c-.836-1.45-1.68-2.897-2.521-4.342l-.458-.788a83 83 0 0 0-2.323-3.797c-.405-.73-.426-1.222-.246-2.03.675-.82 1.106-1.25 2.117-1.587l.264-.529c.527-.33 1.064-.64 1.604-.942l.495-.28a361 361 0 0 1 2.72-1.508c3.23-1.474 3.23-1.474 5.418-3.93zm.265 32.28c.521.93.8 1.907 1.08 2.931l.158.564.511 1.844q.176.642.355 1.286.371 1.345.74 2.693.474 1.722.956 3.445.369 1.327.733 2.654.173.634.351 1.27.25.888.49 1.778l.15.529c.263.99.347 1.72.032 2.701-1.116 1.376-2.873 2.278-4.381 3.16-.22.132-.437.267-.661.404-.958.561-1.596.929-2.72.953-1.363-.548-1.99-1.638-2.702-2.874l-.262-.452q-.426-.736-.849-1.471l-1.201-2.08c-.1-.177-.204-.352-.31-.534a154 154 0 0 0-2.183-3.636c-.293-.478-.59-.96-.883-1.442q-.42-.678-.85-1.354c-1.394-2.292-1.394-2.292-1.301-3.387.352-.884.59-1.17 1.386-1.675l.73-.463a151 151 0 0 1 3.36-1.915 142 142 0 0 0 4.31-2.498c.204-.122.408-.24.62-.365.965-.587 1.751-1.066 2.341-2.066m.529 32.278a4304 4304 0 0 1 3.202 11.439q.491 1.746.979 3.497.186.67.376 1.337.262.935.52 1.87c.08.275.08.275.16.558.246.9.43 1.588.055 2.466-1.122 1.284-2.675 2.149-4.133 2.993l-.592.354c-1.953 1.143-1.953 1.143-2.948 1.151-1.233-.502-1.794-1.373-2.447-2.482l-.328-.537c-1.381-2.286-2.723-4.6-4.064-6.91l-.556-.956-.272-.468a66 66 0 0 0-2.302-3.627c-.466-.842-.6-1.548-.508-2.5.434-1.392 1.886-1.919 3.074-2.557a155 155 0 0 0 4.575-2.6l.762-.442c1.055-.622 2.064-1.223 2.987-2.03.667-.555.667-.555 1.46-.555m-.264 31.221c.519.928.789 1.88 1.075 2.902l.156.556c.172.603.338 1.209.508 1.815.119.42.235.844.354 1.264l.738 2.651q.47 1.699.948 3.392.365 1.307.727 2.615.174.624.352 1.248.246.878.487 1.752l.278 1.005c.19.873.267 1.606.198 2.495-.635.794-1.534 1.297-2.381 1.852l-.474.315q-.767.502-1.542.992l-.5.323c-1.122.683-1.96.98-3.305.752-1-.87-1.659-1.789-2.315-2.935-.09-.153-.177-.306-.27-.465l-.563-.984q-.741-1.298-1.493-2.585-.147-.257-.301-.522a174 174 0 0 0-2.847-4.712c-.14-.23-.283-.458-.429-.693a99 99 0 0 0-1.571-2.45c-.072-.572-.072-.572-.067-1.19l-.005-.62c.072-.571.072-.571.6-1.365.638-.36.638-.36 1.427-.728 1.683-.812 3.267-1.735 4.858-2.712l.783-.473c2.62-1.4 2.62-1.4 4.574-3.495m0 31.485c.553.828.752 1.46 1.014 2.416l.28 1.016.302 1.098q.154.567.312 1.135.412 1.491.82 2.987.412 1.504.828 3.008a1274 1274 0 0 0 1.077 3.924l.405 1.49q.246.887.508 1.767l.228.775q.102.325.203.662c.127.732.056 1.238-.156 1.947-.484.46-.484.46-1.124.876l-.72.47-.802.506-.875.59q-.446.293-.895.585l-.828.545c-1.005.476-1.595.569-2.693.397-1.334-.982-2.056-2.472-2.86-3.887l-.905-1.558-.485-.831c-1.079-1.829-2.203-3.63-3.323-5.432q-.714-1.158-1.423-2.315l-.357-.577c-.503-.836-.701-1.249-.717-2.252.473-1.479 1.778-2.071 3.069-2.83q.415-.25.846-.503l.879-.519a164 164 0 0 0 5.175-3.154c.254-.164.51-.325.773-.492.693-.553 1.042-1.06 1.444-1.844m.265 32.279c.51.923.786 1.865 1.074 2.879q.078.268.156.547.256.895.508 1.789.178.621.355 1.249l.738 2.614q.47 1.671.947 3.342.366 1.288.728 2.577.174.617.352 1.233.245.862.487 1.725l.277.992c.193.87.27 1.598.199 2.484-1.172 1.421-2.987 2.371-4.564 3.308l-.463.28c-1.008.574-1.76.857-2.91.646-.97-.858-1.646-1.752-2.305-2.858-.18-.301-.36-.6-.548-.907l-.571-.966q-.297-.493-.593-.99-.608-1.008-1.212-2.021c-.889-1.487-1.791-2.966-2.693-4.445l-.469-.773-.43-.709-.377-.616a44 44 0 0 0-.857-1.326c-.116-.894-.116-.894 0-1.852.857-1 1.741-1.614 2.895-2.233 1.772-.974 3.484-2.037 5.19-3.125q.377-.237.765-.484c1.154-.735 2.276-1.468 3.32-2.36m0 31.752c.585.878.792 1.598 1.072 2.617l.153.558c.17.608.336 1.217.506 1.826l.349 1.27q.465 1.673.923 3.347l.94 3.4 1.37 4.968c.093.336.185.67.278 1.014.077.277.154.555.23.844l.196.598c.069.46.069.46-.42 1.214-.956 1.048-2.123 1.773-3.316 2.522l-.661.436c-1.257.796-2.204 1.368-3.736 1.05-1.35-.99-2.08-2.508-2.895-3.937l-.905-1.558q-.235-.4-.473-.815a286 286 0 0 0-2.506-4.172c-.159-.26-.315-.519-.476-.786l-.445-.73-.391-.643c-.368-.598-.368-.598-.82-1.143-.35-.503-.35-.503-.35-1.297h-.529c-.428-.857-.389-1.735-.092-2.64.505-.757 1.092-1.016 1.894-1.445.333-.182.67-.365 1-.55l.558-.31c1.175-.667 2.32-1.376 3.47-2.082l.698-.426c1.54-.95 2.973-1.99 4.378-3.13m0 31.75c.511.923.786 1.865 1.075 2.879q.078.268.156.547c.172.596.338 1.194.508 1.789l.354 1.249.738 2.614q.47 1.671.948 3.341.365 1.29.727 2.577.174.617.352 1.233.246.863.487 1.726l.278.992c.193.87.27 1.598.198 2.484-1.172 1.421-2.987 2.37-4.564 3.307l-.463.28c-1.008.575-1.76.858-2.91.646-.969-.857-1.646-1.751-2.305-2.857-.18-.302-.36-.6-.547-.908l-.572-.965-.593-.99q-.608-1.009-1.211-2.021c-.89-1.487-1.792-2.966-2.694-4.445l-.468-.773-.431-.709q-.187-.304-.376-.616a44 44 0 0 0-.857-1.326c-.117-.894-.117-.894 0-1.852.849-.987 1.72-1.603 2.86-2.217 1.88-1.035 3.704-2.154 5.524-3.289l.852-.53q.397-.244.805-.502l.722-.45a7.8 7.8 0 0 0 1.407-1.214m-.264 31.219c.585.876.829 1.712 1.104 2.712.055.196.108.389.166.59q.27.964.535 1.931.186.672.376 1.342l.777 2.812q.498 1.803 1.003 3.604c.26.923.513 1.847.77 2.77q.184.667.37 1.328.26.93.514 1.86l.156.553c.243.9.42 1.583.05 2.458-1.095 1.334-2.667 2.255-4.117 3.16-.166.105-.33.211-.502.322-1.128.68-1.972.98-3.318.752-1.061-.913-1.768-1.953-2.458-3.157l-.312-.529-.651-1.114a628 628 0 0 0-2.016-3.44 147 147 0 0 0-2.485-4.095l-.296-.474a59 59 0 0 0-1.366-2.064c-.566-.889-.664-1.29-.47-2.325.706-1.17 1.43-1.686 2.635-2.315 1.608-.858 3.167-1.781 4.723-2.728l.799-.482c2.455-1.328 2.455-1.328 4.013-3.471m0 32.016c.519.929.789 1.882 1.075 2.903l.156.555c.172.604.338 1.21.508 1.815l.354 1.265.738 2.651q.47 1.698.948 3.392l.727 2.614q.174.625.352 1.25.246.877.487 1.75l.278 1.006c.19.876.28 1.604.198 2.495-.582.611-.582.611-1.389 1.175q-.214.148-.431.302c-.447.31-.9.608-1.355.904-.278.186-.555.373-.844.564-2.214 1.397-2.214 1.397-3.49 1.537-2.04-.529-2.979-3.045-3.998-4.77l-.96-1.646-1.339-2.278-.333-.56a93 93 0 0 0-3.244-5.107c-.704-1.07-1.05-1.763-.873-3.085.27-.789.556-1.194 1.294-1.596l.622-.288c1.664-.81 3.238-1.76 4.815-2.725q.746-.456 1.497-.908.479-.294.964-.587c.428-.262.428-.262.867-.527 1.395-.852 1.395-.852 2.376-2.1m-.265 31.483c.532.952.818 1.96 1.111 3.003l.17.59q.273.96.542 1.92.095.329.188.665.49 1.738.976 3.48a426 426 0 0 0 1.019 3.59q.392 1.38.775 2.765.184.66.376 1.322.266.924.516 1.853l.164.55c.238.894.291 1.333-.098 2.19-.413.517-.751.863-1.299 1.223l-.495.328-.521.333-.537.347c-3.654 2.336-3.654 2.336-4.985 2.249-.984-.26-1.177-.505-1.72-1.35l-.47-.727a159 159 0 0 1-2.377-4.059l-1.04-1.817-.518-.908a275 275 0 0 0-2.31-3.905l-.4-.662a61 61 0 0 0-1.502-2.397c-.148-.876-.148-.876 0-1.852 1.175-1.397 2.908-2.243 4.482-3.109l1.476-.83.738-.419q1.576-.895 3.125-1.844l.527-.31c.992-.613 1.577-1.166 2.087-2.22m.265 32.546c.743 2.633 1.484 5.266 2.214 7.9q.51 1.836 1.027 3.668.503 1.77.99 3.543.186.675.38 1.35c.18.629.352 1.261.524 1.891.056.188.112.373.167.564.233.883.296 1.357-.069 2.209-.624.757-1.36 1.24-2.19 1.746l-.498.307q-.501.31-1.005.611c-.44.262-.873.535-1.307.805-1.05.624-1.86 1.042-3.077 1.203-2.088-.963-3.228-3.884-4.3-5.836-.95-1.717-1.916-3.413-2.958-5.075-.18-.294-.362-.587-.55-.89q-.531-.848-1.077-1.69c-1.582-2.545-1.582-2.545-1.445-4.111.453-1.133 1.564-1.567 2.59-2.11q.762-.447 1.52-.899.809-.468 1.624-.936c7.387-4.25 7.387-4.25 7.44-4.25m-.53 31.484c.58.868.82 1.69 1.088 2.686l.161.58q.262.948.519 1.899.086.324.177.656.468 1.718.929 3.44.477 1.773.97 3.548c.25.907.495 1.82.739 2.73.116.437.238.873.357 1.307q.253.915.495 1.834l.156.542c.222.876.267 1.328-.098 2.167-.595.733-1.222 1.122-2.037 1.598l-.458.267q-.469.279-.942.548c-.452.267-.9.545-1.344.823-.273.17-.548.336-.828.51l-.744.464c-.865.394-1.376.468-2.315.33-.992-.68-1.564-1.33-2.132-2.386l-.437-.794c-.15-.283-.302-.564-.458-.855l-.976-1.786c-.167-.304-.336-.608-.508-.923-.982-1.778-2.027-3.519-3.067-5.263l-.447-.756q-.196-.325-.394-.662a5.7 5.7 0 0 1-.577-1.656h-.529c-.323-.971-.389-1.625-.264-2.646 1-.944 2.04-1.63 3.24-2.304.157-.088.31-.175.469-.262q.73-.415 1.466-.823c4.133-2.09 4.133-2.09 7.79-4.813m-.265 31.486c.513.92.775 1.857 1.05 2.873.074.27.074.27.148.548q.243.892.482 1.786c.11.415.225.828.336 1.243q.352 1.305.701 2.611.445 1.67.9 3.337.348 1.285.693 2.574.163.615.33 1.228.234.862.464 1.725l.264.99c.193.96.251 1.804.188 2.78-.41.492-.41.492-1.027.876q-.355.224-.722.453l-.897.523q-.276.168-.563.34-.929.557-1.868 1.1l-.609.36c-1.212.68-2.154 1.135-3.574.846-1.49-1.323-2.342-3.291-3.308-5.01l-.558-.988q-.71-1.254-1.416-2.51-.885-1.572-1.775-3.144l-.884-1.572-.4-.709q-.173-.303-.346-.616a25 25 0 0 0-.838-1.326c-.117-.91-.117-.91 0-1.852.645-.611.645-.611 1.322-1.058l.265-.53q.742-.274 1.487-.542c1.17-.468 2.238-1.122 3.326-1.757l.735-.426q1.066-.62 2.125-1.243l.582-.341c1.913-1.038 1.913-1.038 3.387-2.57m-.264 32.017c.692.693.814 1.42 1.05 2.341l.148.564q.244.928.481 1.855l.336 1.286q.354 1.351.701 2.704.446 1.728.9 3.458.349 1.329.693 2.659.164.64.33 1.275.234.892.464 1.786l.14.532c.233.92.392 1.757.312 2.707-1.084 1.476-3.087 2.376-4.646 3.257-.365.214-.365.214-.738.43-2.384 1.358-2.384 1.358-3.611 1.34-1.133-.537-1.604-1.109-2.191-2.202a105 105 0 0 1-.471-.868l-.498-.93-.518-.961q-.54-.989-1.074-1.985c-.842-1.553-1.71-3.09-2.575-4.63l-.46-.823q-.215-.382-.434-.778c-.135-.238-.267-.476-.405-.722q-.346-.612-.712-1.217c-.722-1.199-.722-1.199-.65-2.199q.099-.332.198-.677l.794-.265v-.529c8.85-5.109 8.85-5.109 12.435-6.879zm-.265 32.014h.529q.987 3.737 1.966 7.472l1.794 6.821q.165.639.336 1.278.238.894.47 1.791l.141.53c.265 1.026.392 1.952.32 3.01-1.069 1.596-3.392 2.533-5.027 3.424l-.847.482c-1.14.624-2.053 1.09-3.355 1.238-1.277-.59-1.746-1.556-2.413-2.762-.13-.228-.256-.458-.391-.693-.413-.747-.812-1.498-1.212-2.25a325 325 0 0 0-3.738-6.796l-.442-.786c-.522-.918-1.038-1.823-1.625-2.704-.116-.553-.116-.553-.148-1.16a39 39 0 0 1-.05-.6c.367-1.153 1.537-1.661 2.548-2.217.508-.26 1.02-.508 1.537-.754a59 59 0 0 0 4.572-2.485c1.222-.698 2.487-1.307 3.754-1.918.762-.349.762-.349 1.28-.92m.001 30.954h.265l.222.95a370 370 0 0 0 2.04 8.276l.246.952q.502 1.95 1.008 3.898.378 1.444.746 2.889l.233.886c.072.276.14.548.212.829l.188.722c.148.794.198 1.49.132 2.294-1.06 1.095-2.323 1.791-3.654 2.513l-1.127.62c-.27.145-.27.145-.545.296-.624.346-1.236.717-1.85 1.085-.912.497-1.563.751-2.614.513-1.397-1.133-2.09-2.627-2.91-4.202l-.91-1.709c-.154-.291-.31-.582-.468-.884a214 214 0 0 0-2.326-4.17c-.14-.243-.278-.489-.423-.743q-.2-.349-.403-.709-.193-.336-.386-.68l-.762-1.334c-.122-.211-.24-.423-.365-.64l-.323-.563c-.376-.762-.436-1.265-.249-2.093.995-1.17 2.075-1.791 3.424-2.464l1.204-.619.606-.312c1.175-.619 2.315-1.296 3.458-1.968.833-.458.833-.458 1.783-.866a13.5 13.5 0 0 0 2.194-1.18q.3-.197.608-.396c.556-.387.556-.387.746-1.191m-.265 32.281c.705.704.821 1.458 1.057 2.394q.071.285.148.582.245.954.487 1.908.166.663.336 1.326.353 1.389.703 2.778.453 1.784.908 3.564.352 1.368.696 2.736.165.657.336 1.315c.156.61.31 1.225.463 1.836l.143.547c.217.89.389 1.588.015 2.445-.875.746-1.915 1.278-2.91 1.852q-.307.182-.627.368-1.036.61-2.085 1.204l-.683.397c-1.275.714-2.248 1.212-3.749.942-.846-.72-1.344-1.485-1.86-2.461l-.447-.841c-.156-.297-.312-.593-.47-.9l-.742-1.392-.502-.947a364 364 0 0 0-2.477-4.588l-.38-.698c-.18-.331-.18-.331-.366-.667l-.347-.638a88 88 0 0 0-.725-1.283q-.177-.313-.362-.635l-.328-.563c-.408-.847-.434-1.466-.254-2.379.58-.595.58-.595 1.323-1.058.235-.154.468-.307.712-.463.61-.331.61-.331 1.14-.331v-.53c.307-.105.614-.214.929-.322 1.164-.437 2.204-1.013 3.272-1.646 1.387-.801 2.744-1.49 4.25-2.045.955-.386 1.923-.86 2.397-1.807m-.001 31.748c.519.923.765 1.857 1.027 2.881l.14.55q.23.898.455 1.795l.318 1.248q.334 1.31.664 2.617.424 1.677.852 3.35.33 1.291.656 2.582.155.617.315 1.233l.436 1.73c.082.329.167.654.252.993.158.77.254 1.407.177 2.188-.474.473-.474.473-1.138.902l-.733.476a94 94 0 0 1-3.736 2.178l-.756.434c-2.456 1.352-2.456 1.352-3.956 1.037-1.085-.929-1.743-1.96-2.381-3.215-.143-.275-.143-.275-.291-.553a372 372 0 0 1-.916-1.773l-1.272-2.442-.318-.608a112 112 0 0 0-1.926-3.55l-.45-.8q-.404-.714-.82-1.423c-.709-1.257-1.077-2.14-.886-3.628.365-.513.365-.513.794-.794h.529v-.529c.156-.074.312-.145.47-.222q1.08-.507 2.16-1.019l.74-.349a54 54 0 0 0 4.049-2.103 9 9 0 0 1 1.56-.64c1.448-.5 2.9-1.461 3.985-2.546m-.264 31.752.529.264c.204.62.373 1.228.529 1.86l.153.588q.246.97.487 1.94l.342 1.343.706 2.823q.452 1.809.916 3.617.35 1.386.698 2.776.166.667.336 1.333.239.933.466 1.868l.148.556c.18.762.288 1.28.034 2.032-1.31 1.786-3.892 2.83-5.791 3.855-.239.13-.477.262-.723.397-1.31.69-2.341 1.217-3.857.942-.829-.707-1.326-1.448-1.834-2.405l-.434-.818-.46-.878-.733-1.376-.77-1.455a952 952 0 0 0-2.45-4.596q-.392-.732-.78-1.463l-.906-1.694c-.373-.696-.373-.696-.894-1.455-.116-.762-.116-.762 0-1.587 1.223-1.567 2.977-2.456 4.779-3.21.947-.423 1.852-.926 2.762-1.42 1.069-.58 2.13-1.154 3.252-1.625.661-.28 1.248-.566 1.857-.94.844-.478.844-.478 1.373-.478zm-.001 31.219c.54.95.8 1.953 1.067 3.003l.156.59q.249.96.495 1.92.083.329.172.665.444 1.738.886 3.48.366 1.439.74 2.875.456 1.738.895 3.48.166.66.344 1.322.24.924.468 1.853l.151.55c.122.513.122.513.183 1.429-.54.857-1.08 1.428-1.966 1.907-.257.14-.257.14-.516.286-.27.14-.27.14-.545.288l-.564.307q-.57.31-1.145.617-.781.421-1.553.854c-2.715 1.509-2.715 1.509-3.765 1.561-1.323-.513-1.823-1.494-2.448-2.696l-.325-.606q-.602-1.124-1.196-2.254-.565-1.059-1.125-2.114-.9-1.687-1.79-3.373c-.141-.268-.141-.268-.287-.537l-.547-1.038a86 86 0 0 0-1.84-3.312c-.42-.852-.438-1.41-.232-2.326.736-.907 1.508-1.484 2.63-1.82l.545-.032v-.53q.207-.071.42-.147c1.781-.667 3.43-1.522 5.097-2.43.862-.467 1.72-.912 2.627-1.29.696-.3 1.267-.588 1.878-1.027l.46-.323c.443-.354.443-.354.63-1.132m.53 32.545q1.003 3.906 1.995 7.811.458 1.814.923 3.627.452 1.747.892 3.498.168.67.341 1.336.241.934.474 1.871c.074.275.074.275.148.558.185.762.296 1.28.042 2.035-1.312 1.786-3.89 2.828-5.791 3.855-.239.13-.477.262-.723.397-2.355 1.24-2.355 1.24-3.857.942-1.561-1.064-2.239-2.969-3.059-4.615l-.984-1.928-.249-.49a179 179 0 0 0-2.487-4.675q-.193-.348-.389-.71a108 108 0 0 0-1.643-2.904c-.508-.921-.65-1.374-.45-2.405 1.225-1.57 2.98-2.456 4.779-3.21 1.14-.51 2.222-1.135 3.317-1.733 1.09-.59 2.17-1.066 3.337-1.484.653-.26 1.196-.622 1.765-1.032 1.037-.744 1.037-.744 1.619-.744m0 31.486 3.998 15.997q.232.926.484 1.844l.227.85c.07.24.135.483.204.735.127.759.072 1.272-.15 2.005-.712.646-1.556 1.08-2.387 1.553q-.575.33-1.146.667c-.688.407-1.381.804-2.074 1.204l-.675.397c-1.413.793-2.413 1.222-4.037.942-.768-.831-1.313-1.72-1.842-2.715l-.44-.823-.465-.878q-.364-.687-.733-1.373-.38-.72-.764-1.437-1.279-2.4-2.57-4.797l-.478-.892-.442-.825q-.194-.359-.392-.73c-.354-.654-.354-.654-.87-1.405-.148-.96-.196-1.831.365-2.646.429-.265.429-.265.958-.265v-.529q1.29-.646 2.585-1.288c2.288-1.128 2.288-1.128 4.527-2.35.788-.452 1.574-.791 2.429-1.109 1.166-.441 2.063-1.037 3.026-1.823.397-.31.397-.31.662-.31m-.265 32.015c.71.71.779 1.318 1.027 2.29q.07.269.14.547.23.897.456 1.799l.317 1.249q.334 1.31.664 2.624.425 1.678.852 3.355.331 1.291.656 2.583l.315 1.238c.148.577.291 1.156.437 1.733l.251.997c.17.863.238 1.612.177 2.488-.357.444-.357.444-.87.788l-.585.397a73 73 0 0 1-3.672 2.072c-.394.214-.394.214-.797.43-2.833 1.525-2.833 1.525-4.394 1.34-1.27-1.262-1.998-2.781-2.794-4.366l-.839-1.63a86 86 0 0 0-.431-.841 199 199 0 0 0-2.138-3.98l-.386-.706c-.186-.336-.186-.336-.373-.68l-.358-.65q-.36-.651-.735-1.297c-.12-.21-.241-.416-.363-.63l-.328-.558c-.444-.95-.41-1.617-.251-2.654.413-.58.413-.58 1.058-1.058l.418-.339c.765-.593 1.32-.955 2.273-1.207 1.238-.33 2.278-.97 3.379-1.613 1.15-.67 2.265-1.318 3.521-1.768a9.3 9.3 0 0 0 2.315-1.209l.612-.423zm.53 31.75q.995 3.845 1.98 7.695.457 1.785.92 3.571.445 1.725.884 3.448l.34 1.315q.239.92.472 1.844l.145.548c.249.997.365 1.765.021 2.746-.529.442-1 .775-1.587 1.125l-.492.301q-.806.488-1.625.955l-.59.342q-.891.507-1.79.997c-.281.156-.281.156-.567.318-1.066.566-1.905.97-3.138.725-1.434-1.043-2.109-2.66-2.91-4.202l-.908-1.71-.471-.88c-.894-1.662-1.834-3.3-2.773-4.94-2.458-4.313-2.458-4.313-2.199-6.26.66-.778 1.334-1.267 2.234-1.736l.762-.404.45-.233q.944-.494 1.883-.995l1.485-.783.72-.381c.991-.519 1.973-1.03 3.007-1.456a11 11 0 0 0 2.11-1.206c1.052-.744 1.052-.744 1.637-.744m-.265 31.75c.704.704.82 1.461 1.056 2.398l.148.584q.245.957.487 1.913.166.663.336 1.326.353 1.392.703 2.783.453 1.787.908 3.57.352 1.37.696 2.74.165.66.336 1.316.234.92.463 1.841l.143.55c.211.86.301 1.286.016 2.146-.9.717-1.919 1.273-2.91 1.852-.21.122-.416.244-.63.37q-1.049.607-2.099 1.202l-.69.397c-2.212 1.233-2.212 1.233-3.461.942-.974-.863-1.603-1.71-2.199-2.858l-.476-.907c-.082-.16-.164-.315-.249-.477-.428-.83-.868-1.659-1.304-2.487l-.267-.508c-1.016-1.923-2.09-3.81-3.167-5.699l-.405-.706-.352-.614c-.773-1.387-.918-2.143-.841-3.736.264-.794.264-.794 1.029-1.233q.518-.245 1.037-.487c2.003-.958 3.94-2.008 5.871-3.103.982-.55 1.94-1.053 3-1.437.802-.294 1.36-.553 2.027-1.066.262-.201.524-.402.794-.612m.529 31.75q.984 3.795 1.966 7.591l.913 3.525q.442 1.7.88 3.4.167.649.337 1.299.238.909.47 1.817l.141.54c.235.926.431 1.775.32 2.73-1.243 1.292-2.844 2.093-4.397 2.961-.252.14-.5.28-.757.426q-.99.561-1.99 1.111l-.55.31c-.855.37-1.482.19-2.36-.045-1.188-1.204-1.894-2.802-2.678-4.284q-.464-.858-.923-1.717c-.15-.283-.304-.566-.46-.86a281 281 0 0 0-1.86-3.392l-.32-.584a44 44 0 0 0-1.477-2.503l-.516-.815-.45-.67c-.452-1.14-.373-2.22-.312-3.431l.508-.262c4.12-2.122 4.12-2.122 8.147-4.419.52-.299 1.024-.54 1.582-.759 1.01-.44 1.852-1.013 2.749-1.648.508-.32.508-.32 1.037-.32m-.264 31.485c.59.886.782 1.606 1.055 2.635l.148.566q.245.925.487 1.85c.11.428.225.857.336 1.286l.704 2.696q.451 1.726.907 3.453.353 1.328.696 2.656.166.639.336 1.273.234.892.463 1.783c.087.339.177.675.267 1.024.151.862.162 1.384-.108 2.21-1.387 1.399-3.39 2.304-5.093 3.275l-.617.352c-2.074 1.15-2.074 1.15-3.286 1.135-.99-.675-1.564-1.331-2.133-2.376q-.213-.392-.436-.791l-.458-.852-.979-1.784-.508-.931c-.836-1.53-1.683-3.053-2.53-4.577l-.465-.844-.44-.789-.38-.69c-.402-.683-.402-.683-.968-1.36-.699-.876-.757-1.503-.71-2.604.381-1.15 1.265-1.537 2.29-2.098.277-.135.552-.272.838-.413.235-.119.47-.24.714-.365q.754-.377 1.51-.746c1.25-.614 2.462-1.294 3.679-1.963.336-.188.336-.188.68-.376.428-.238.86-.476 1.286-.714q.578-.323 1.161-.64c.937-.471.937-.471 1.553-1.281m.265 31.484h.264q.087.346.172.7l.836 3.385a328 328 0 0 0 2.188 8.44c.07.246.135.492.204.746q.495 1.807 1 3.609l.365 1.325c.059.202.114.4.175.606.283 1.045.455 1.847.087 2.884-1.439 1.424-3.376 2.421-5.127 3.424l-.543.312c-1.801 1.003-1.801 1.003-2.796 1.027-1.289-.51-1.836-.992-2.482-2.212q-.231-.427-.468-.87c-.244-.464-.244-.464-.49-.937q-.388-.726-.78-1.447l-.535-.993c-.905-1.685-1.865-3.336-2.836-4.984-.151-.26-.304-.519-.46-.786-.143-.244-.289-.487-.434-.741l-.405-.688a87 87 0 0 0-.707-1.183c-.666-1.116-.873-1.838-.722-3.15.53-.795.53-.795 1.222-.977.21-.027.416-.053.63-.082v-.53c.251-.121.5-.243.76-.37 6.14-2.495 6.14-2.495 10.882-6.508m0 32.28c.529.265.529.265.796 1.043q.143.528.283 1.056c.053.193.103.386.159.582q.257.956.51 1.913.176.662.355 1.325.373 1.394.74 2.786.475 1.784.956 3.57.369 1.368.733 2.74l.352 1.316q.248.92.49 1.841c.05.18.097.363.15.548.23.891.402 1.58.032 2.447-1.307 1.294-3.07 2.215-4.646 3.143q-.323.195-.651.397c-1.257.741-2.199 1.228-3.699.958-.826-.706-1.347-1.466-1.881-2.405l-.466-.818-.497-.878-.786-1.378-.826-1.453c-.582-1.027-1.17-2.048-1.754-3.07q-.575-1.002-1.148-2.005-.139-.238-.28-.484l-.784-1.373c-.15-.262-.299-.521-.452-.791-.92-1.649-.92-1.649-.884-2.41.582-1.657 2.252-2.302 3.704-3.075l1.43-.775c.24-.13.48-.26.73-.392a402 402 0 0 0 3.315-1.812l.579-.312a31 31 0 0 0 3.44-2.234m.264 31.484c.577.863.815 1.678 1.08 2.664.053.191.103.379.158.575q.256.937.511 1.878.175.653.355 1.307.371 1.366.74 2.736.474 1.756.956 3.508.368 1.35.732 2.7l.352 1.29q.249.906.49 1.81l.15.54c.233.886.398 1.56.032 2.423-1.296 1.421-3.156 2.347-4.812 3.292l-.62.36c-2.02 1.124-2.02 1.124-3.299.846-1.497-1.077-2.233-2.844-3.093-4.432q-.493-.896-.99-1.793c-.158-.294-.32-.585-.486-.887a146 146 0 0 0-1.881-3.273l-.315-.54a71 71 0 0 0-1.54-2.492q-.15-.233-.302-.473-.402-.62-.812-1.236c-.426-.86-.482-1.389-.37-2.336 1.772-2.363 5.283-3.66 7.81-5.064 2.738-1.474 2.738-1.474 5.154-3.403m.265 31.752c.521.931.8 1.91 1.08 2.934.053.188.103.373.158.566l.511 1.85q.176.642.355 1.286l.74 2.696c.318 1.15.636 2.304.956 3.453q.369 1.329.733 2.659l.351 1.272q.25.89.49 1.78.073.262.15.53c.236.884.395 1.545.032 2.405-1.28 1.37-3.074 2.328-4.661 3.307l-.575.368c-.96.574-1.5.823-2.64.831-1.818-.58-2.432-2.151-3.302-3.728a309 309 0 0 0-4.035-6.964q-.777-1.302-1.553-2.609-.39-.659-.786-1.315c-.656-1.108-.92-1.817-.704-3.119 1.045-1.275 2.329-1.937 3.77-2.696l1.421-.765c.238-.13.474-.256.72-.389 1.072-.584 2.13-1.19 3.186-1.807l.545-.312a20 20 0 0 0 3.058-2.233"/><path fill="#faaaab" d="m44.632 2294.902.529.264-.514.429c-.648.746-.722 1.249-.81 2.217h-.264c-.13-1.693-.13-1.693.53-2.498z"/><path fill="#BDE8FE" d="M56.803 2319.772q1.106 3.957 2.201 7.914.507 1.837 1.022 3.675.496 1.77.981 3.546.188.677.379 1.354.265.945.523 1.895l.164.566c.204.77.334 1.286.072 2.053-1.08 1.463-2.937 2.355-4.466 3.289l-.514.32c-.902.54-1.682 1.003-2.743 1.053-1.194-.333-1.596-.783-2.202-1.847l-.49-.838c-.168-.305-.34-.606-.515-.919l-.828-1.439q-.295-.507-.585-1.019a149 149 0 0 0-2.341-3.902q-.525-.858-1.046-1.715c-.23-.37-.457-.74-.69-1.108a105 105 0 0 1-.96-1.572l-.3-.463c-.5-.841-.627-1.325-.592-2.312.304-1.135.857-1.583 1.817-2.18q.648-.36 1.302-.707c1.707-.923 3.368-1.913 5.033-2.916q.438-.26.889-.531.419-.254.854-.514l.767-.46c.678-.413.678-.413 1.268-.881.47-.342.47-.342 1-.342m-.265 30.955c.535.952.815 1.96 1.109 3.008q.079.29.167.59l.54 1.926.185.665q.487 1.74.97 3.481.502 1.802 1.011 3.599.392 1.381.773 2.767l.373 1.326q.264.927.516 1.855l.161.553c.204.759.326 1.264.072 2.021-1.122 1.524-2.985 2.503-4.585 3.46l-.46.284c-1.11.64-1.948.884-3.213.659-.59-.53-.905-.929-1.323-1.588l-.473-.74a192 192 0 0 1-1.66-2.731q-.298-.5-.597-.995l-1.196-1.992c-.521-.868-1.045-1.73-1.572-2.596q-.435-.714-.868-1.429c-.135-.22-.267-.439-.407-.664-.12-.2-.238-.4-.363-.603l-.317-.521c-.22-.429-.22-.429-.22-.958h-.529c-.32-.963-.37-1.635-.264-2.646.904-1.074 1.928-1.72 3.159-2.365 1.878-1.024 3.71-2.12 5.522-3.257l.77-.474c.24-.15.478-.301.724-.458q.318-.197.643-.402c.643-.52.969-1.05 1.352-1.775m.264 32.281c.585.878.792 1.598 1.072 2.617l.153.558c.17.608.336 1.217.506 1.826l.349 1.27q.465 1.673.923 3.347l.94 3.4 1.37 4.968c.093.336.185.67.278 1.014.077.277.154.555.23.844l.196.598c.069.46.069.46-.42 1.214-.956 1.048-2.123 1.773-3.316 2.522l-.661.436c-1.257.796-2.204 1.368-3.736 1.05-1.35-.99-2.08-2.508-2.895-3.937l-.91-1.563-.474-.815c-.801-1.37-1.627-2.728-2.452-4.085-.148-.249-.3-.495-.453-.752a77 77 0 0 0-2.566-3.955c-.46-.762-.516-1.228-.304-2.09.833-1.382 1.862-1.93 3.272-2.657 1.292-.68 2.53-1.455 3.77-2.222.236-.143.47-.283.71-.432 1.553-.96 3-2.005 4.418-3.156m0 31.75c.585.878.792 1.598 1.072 2.617l.153.558c.17.608.336 1.217.506 1.826l.349 1.27q.465 1.673.923 3.347l.94 3.4 1.37 4.968c.093.336.185.67.278 1.014.077.277.154.555.23.844l.196.598c.069.46.069.46-.42 1.214-.956 1.048-2.123 1.773-3.316 2.522l-.661.436c-1.257.796-2.204 1.368-3.736 1.05-1.35-.99-2.08-2.508-2.895-3.937l-.91-1.563-.474-.815c-.801-1.37-1.627-2.728-2.452-4.085-.148-.249-.3-.495-.453-.752a73 73 0 0 0-2.571-3.95c-.434-.735-.453-1.267-.3-2.095.384-1.12 1.048-1.427 2.067-1.969.333-.182.67-.365 1-.55l.558-.31c1.175-.667 2.32-1.376 3.47-2.082l.698-.426c1.54-.95 2.973-1.99 4.378-3.13m0 31.75c.585.878.792 1.598 1.072 2.617l.153.558c.17.608.336 1.217.506 1.826l.349 1.27q.465 1.673.923 3.347l.94 3.4 1.37 4.968c.093.336.185.67.278 1.014.077.277.154.555.23.844l.196.598c.069.46.069.46-.42 1.214-.956 1.048-2.123 1.773-3.316 2.522l-.661.436c-1.257.796-2.204 1.368-3.736 1.05-1.35-.99-2.08-2.508-2.895-3.937l-.91-1.563-.474-.815c-.801-1.37-1.627-2.728-2.452-4.085-.148-.249-.3-.495-.453-.752a73 73 0 0 0-2.571-3.95c-.434-.735-.453-1.267-.3-2.095.384-1.12 1.048-1.427 2.067-1.969.333-.182.67-.365 1-.55l.558-.31c1.175-.667 2.32-1.376 3.47-2.082l.698-.426c1.54-.95 2.973-1.99 4.378-3.13m0 31.75c.585.878.792 1.598 1.072 2.617l.153.558c.17.608.336 1.217.506 1.826l.349 1.27q.465 1.673.923 3.347l.94 3.4 1.37 4.968c.093.336.185.67.278 1.014.077.277.154.555.23.844l.196.598c.069.46.069.46-.42 1.214-.956 1.048-2.123 1.773-3.316 2.522l-.661.436c-1.257.796-2.204 1.368-3.736 1.05-1.35-.99-2.08-2.508-2.895-3.937l-.91-1.563-.474-.815c-.801-1.37-1.627-2.728-2.452-4.085-.148-.249-.3-.495-.453-.752a73 73 0 0 0-2.571-3.95c-.434-.735-.453-1.267-.3-2.095.384-1.12 1.048-1.427 2.067-1.969.333-.182.67-.365 1-.55l.558-.31c1.175-.667 2.32-1.376 3.47-2.082l.698-.426c1.54-.95 2.973-1.99 4.378-3.13m0 31.75c.585.878.792 1.598 1.072 2.617l.153.558c.17.608.336 1.217.506 1.826l.349 1.27q.465 1.673.923 3.347l.94 3.4 1.37 4.968c.093.336.185.67.278 1.014.077.277.154.555.23.844l.196.598c.069.46.069.46-.42 1.214-.956 1.048-2.123 1.773-3.316 2.522l-.661.436c-1.257.796-2.204 1.368-3.736 1.05-1.35-.99-2.08-2.508-2.895-3.937l-.91-1.563-.474-.815c-.801-1.37-1.627-2.728-2.452-4.085-.148-.249-.3-.495-.453-.752a73 73 0 0 0-2.571-3.95c-.434-.735-.453-1.267-.3-2.095.384-1.12 1.048-1.427 2.067-1.969.333-.182.67-.365 1-.55l.558-.31c1.175-.667 2.32-1.376 3.47-2.082l.698-.426c1.54-.95 2.973-1.99 4.378-3.13m0 31.75c.585.878.792 1.598 1.072 2.617l.153.558c.17.608.336 1.217.506 1.826l.349 1.27q.465 1.673.923 3.347l.94 3.4 1.37 4.968c.093.336.185.67.278 1.014.077.277.154.555.23.844l.196.598c.069.46.069.46-.42 1.214-.956 1.048-2.123 1.773-3.316 2.522l-.661.436c-1.257.796-2.204 1.368-3.736 1.05-1.35-.99-2.08-2.508-2.895-3.937l-.91-1.563-.474-.815c-.801-1.37-1.627-2.728-2.452-4.085-.148-.249-.3-.495-.453-.752a76 76 0 0 0-2.569-3.953c-.444-.743-.473-1.254-.301-2.092.46-1.21 1.121-1.495 2.243-2.04 1.252-.64 2.44-1.392 3.636-2.128q.677-.419 1.36-.83c1.727-1.064 3.365-2.178 4.931-3.47m0 31.751c.585.878.792 1.598 1.072 2.617l.153.558c.17.608.336 1.217.506 1.826l.349 1.27q.465 1.673.923 3.347l.94 3.4 1.37 4.968c.093.336.185.67.278 1.014.077.277.154.555.23.844l.196.598c.069.46.069.46-.42 1.214-.956 1.048-2.123 1.773-3.316 2.522l-.661.436c-1.257.796-2.204 1.368-3.736 1.05-1.35-.99-2.08-2.508-2.895-3.937l-.91-1.563-.474-.815c-.801-1.37-1.627-2.728-2.452-4.085-.148-.249-.3-.495-.453-.752a76 76 0 0 0-2.569-3.953c-.444-.743-.473-1.254-.301-2.092.46-1.21 1.121-1.495 2.243-2.04 1.252-.64 2.44-1.392 3.636-2.128q.677-.419 1.36-.83c1.727-1.064 3.365-2.178 4.931-3.47m0 31.751c.585.878.792 1.598 1.072 2.617l.153.558c.17.608.336 1.217.506 1.826l.349 1.27q.465 1.673.923 3.347l.94 3.4 1.37 4.968c.093.336.185.67.278 1.014.077.277.154.555.23.844l.196.598c.069.46.069.46-.42 1.214-.956 1.048-2.123 1.773-3.316 2.522l-.661.436c-1.257.796-2.204 1.368-3.736 1.05-1.35-.99-2.08-2.508-2.895-3.937l-.905-1.558q-.235-.4-.473-.815a286 286 0 0 0-2.506-4.172c-.159-.26-.315-.519-.476-.786l-.445-.73-.391-.643c-.368-.598-.368-.598-.82-1.143-.35-.503-.35-.503-.35-1.297h-.529c-.428-.857-.389-1.735-.092-2.64.505-.757 1.092-1.016 1.894-1.445.333-.182.67-.365 1-.55l.558-.31c1.175-.667 2.32-1.376 3.47-2.082l.698-.426c1.54-.95 2.973-1.99 4.378-3.13m0 31.75c.585.878.792 1.598 1.072 2.617l.153.558c.17.608.336 1.217.506 1.826l.349 1.27q.465 1.673.923 3.347l.94 3.4 1.37 4.968c.093.336.185.67.278 1.014.077.277.154.555.23.844l.196.598c.069.46.069.46-.42 1.214-.956 1.048-2.123 1.773-3.316 2.522l-.661.436c-1.257.796-2.204 1.368-3.736 1.05-1.35-.99-2.08-2.508-2.895-3.937l-.91-1.563-.474-.815c-.801-1.37-1.627-2.728-2.452-4.085-.148-.249-.3-.495-.453-.752a73 73 0 0 0-2.571-3.95c-.434-.735-.453-1.267-.3-2.095.384-1.12 1.048-1.427 2.067-1.969.333-.182.67-.365 1-.55l.558-.31c1.175-.667 2.32-1.376 3.47-2.082l.698-.426c1.54-.95 2.973-1.99 4.378-3.13m0 31.75c.585.878.792 1.598 1.072 2.617l.153.558c.17.608.336 1.217.506 1.826l.349 1.27q.465 1.673.923 3.347l.94 3.4 1.37 4.968c.093.336.185.67.278 1.014.077.277.154.555.23.844l.196.598c.069.46.069.46-.42 1.214-.956 1.048-2.123 1.773-3.316 2.522l-.661.436c-1.257.796-2.204 1.368-3.736 1.05-1.35-.99-2.08-2.508-2.895-3.937l-.91-1.563-.474-.815c-.801-1.37-1.627-2.728-2.452-4.085-.148-.249-.3-.495-.453-.752a77 77 0 0 0-2.566-3.955c-.46-.762-.516-1.228-.304-2.09.833-1.382 1.862-1.93 3.272-2.657 1.292-.68 2.53-1.455 3.77-2.222.236-.143.47-.283.71-.432 1.553-.96 3-2.005 4.418-3.156m0 31.75c.585.878.792 1.598 1.072 2.617l.153.558c.17.608.336 1.217.506 1.826l.349 1.27q.465 1.673.923 3.347l.94 3.4 1.37 4.968c.093.336.185.67.278 1.014.077.277.154.555.23.844l.196.598c.069.46.069.46-.42 1.214-.956 1.048-2.123 1.773-3.316 2.522l-.661.436c-1.257.796-2.204 1.368-3.736 1.05-1.35-.99-2.08-2.508-2.895-3.937l-.91-1.563-.474-.815c-.801-1.37-1.627-2.728-2.452-4.085-.148-.249-.3-.495-.453-.752a73 73 0 0 0-2.571-3.95c-.434-.735-.453-1.267-.3-2.095.384-1.12 1.048-1.427 2.067-1.969.333-.182.67-.365 1-.55l.558-.31c1.175-.667 2.32-1.376 3.47-2.082l.698-.426c1.54-.95 2.973-1.99 4.378-3.13m0 31.75c.585.878.792 1.598 1.072 2.617l.153.558c.17.608.336 1.217.506 1.826l.349 1.27q.465 1.673.923 3.347l.94 3.4 1.37 4.968c.093.336.185.67.278 1.014.077.277.154.555.23.844l.196.598c.069.46.069.46-.42 1.214-.956 1.048-2.123 1.773-3.316 2.522l-.661.436c-1.257.796-2.204 1.368-3.736 1.05-1.35-.99-2.08-2.508-2.895-3.937l-.91-1.563-.474-.815c-.801-1.37-1.627-2.728-2.452-4.085-.148-.249-.3-.495-.453-.752a73 73 0 0 0-2.571-3.95c-.434-.735-.453-1.267-.3-2.095.384-1.12 1.048-1.427 2.067-1.969.333-.182.67-.365 1-.55l.558-.31c1.175-.667 2.32-1.376 3.47-2.082l.698-.426c1.54-.95 2.973-1.99 4.378-3.13m0 31.75c.585.878.792 1.598 1.072 2.617l.153.558c.17.608.336 1.217.506 1.826l.349 1.27q.465 1.673.923 3.347l.94 3.4 1.37 4.968c.093.336.185.67.278 1.014.077.277.154.555.23.844l.196.598c.069.46.069.46-.42 1.214-.956 1.048-2.123 1.773-3.316 2.522l-.661.436c-1.257.796-2.204 1.368-3.736 1.05-1.35-.99-2.08-2.508-2.895-3.937l-.91-1.563-.474-.815c-.801-1.37-1.627-2.728-2.452-4.085-.148-.249-.3-.495-.453-.752a73 73 0 0 0-2.571-3.95c-.434-.735-.453-1.267-.3-2.095.384-1.12 1.048-1.427 2.067-1.969.333-.182.67-.365 1-.55l.558-.31c1.175-.667 2.32-1.376 3.47-2.082l.698-.426c1.54-.95 2.973-1.99 4.378-3.13m0 31.75c.585.878.792 1.598 1.072 2.617l.153.558c.17.608.336 1.217.506 1.826l.349 1.27q.465 1.673.923 3.347l.94 3.4 1.37 4.968c.093.336.185.67.278 1.014.077.277.154.555.23.844l.196.598c.069.46.069.46-.42 1.214-.956 1.048-2.123 1.773-3.316 2.522l-.661.436c-1.257.796-2.204 1.368-3.736 1.05-1.35-.99-2.08-2.508-2.895-3.937l-.91-1.563-.474-.815c-.801-1.37-1.627-2.728-2.452-4.085-.148-.249-.3-.495-.453-.752a73 73 0 0 0-2.571-3.95c-.434-.735-.453-1.267-.3-2.095.384-1.12 1.048-1.427 2.067-1.969.333-.182.67-.365 1-.55l.558-.31c1.175-.667 2.32-1.376 3.47-2.082l.698-.426c1.54-.95 2.973-1.99 4.378-3.13m0 31.75c.585.878.792 1.598 1.072 2.617l.153.558c.17.608.336 1.217.506 1.826l.349 1.27q.465 1.673.923 3.347l.94 3.4 1.37 4.968c.093.336.185.67.278 1.014.077.277.154.555.23.844l.196.598c.069.46.069.46-.42 1.214-.956 1.048-2.123 1.773-3.316 2.522l-.661.436c-1.257.796-2.204 1.368-3.736 1.05-1.35-.99-2.08-2.508-2.895-3.937l-.91-1.563-.474-.815c-.801-1.37-1.627-2.728-2.452-4.085-.148-.249-.3-.495-.453-.752a73 73 0 0 0-2.571-3.95c-.434-.735-.453-1.267-.3-2.095.384-1.12 1.048-1.427 2.067-1.969.333-.182.67-.365 1-.55l.558-.31c1.175-.667 2.32-1.376 3.47-2.082l.698-.426c1.54-.95 2.973-1.99 4.378-3.13m0 31.75c.585.878.792 1.598 1.072 2.617l.153.558c.17.608.336 1.217.506 1.826l.349 1.27q.465 1.673.923 3.347l.94 3.4 1.37 4.968c.093.336.185.67.278 1.014.077.277.154.555.23.844l.196.598c.069.46.069.46-.42 1.214-.956 1.048-2.123 1.773-3.316 2.522l-.661.436c-1.257.796-2.204 1.368-3.736 1.05-1.35-.99-2.08-2.508-2.895-3.937l-.91-1.563-.474-.815c-.801-1.37-1.627-2.728-2.452-4.085-.148-.249-.3-.495-.453-.752a73 73 0 0 0-2.571-3.95c-.434-.735-.453-1.267-.3-2.095.384-1.12 1.048-1.427 2.067-1.969.333-.182.67-.365 1-.55l.558-.31c1.175-.667 2.32-1.376 3.47-2.082l.698-.426c1.54-.95 2.973-1.99 4.378-3.13m0 31.75c.585.878.792 1.598 1.072 2.617l.153.558c.17.608.336 1.217.506 1.826l.349 1.27q.465 1.673.923 3.347l.94 3.4 1.37 4.968c.093.336.185.67.278 1.014.077.277.154.555.23.844l.196.598c.069.46.069.46-.42 1.214-.956 1.048-2.123 1.773-3.316 2.522l-.661.436c-1.257.796-2.204 1.368-3.736 1.05-1.35-.99-2.08-2.508-2.895-3.937l-.91-1.563-.474-.815c-.801-1.37-1.627-2.728-2.452-4.085-.148-.249-.3-.495-.453-.752a73 73 0 0 0-2.571-3.95c-.434-.735-.453-1.267-.3-2.095.384-1.12 1.048-1.427 2.067-1.969.333-.182.67-.365 1-.55l.558-.31c1.175-.667 2.32-1.376 3.47-2.082l.698-.426c1.54-.95 2.973-1.99 4.378-3.13m0 31.75c.585.878.792 1.598 1.072 2.617l.153.558c.17.608.336 1.217.506 1.826l.349 1.27q.465 1.673.923 3.347l.94 3.4 1.37 4.968c.093.336.185.67.278 1.014.077.277.154.555.23.844l.196.598c.069.46.069.46-.42 1.214-.956 1.048-2.123 1.773-3.316 2.522l-.661.436c-1.257.796-2.204 1.368-3.736 1.05-1.35-.99-2.08-2.508-2.895-3.937l-.91-1.563-.474-.815c-.801-1.37-1.627-2.728-2.452-4.085-.148-.249-.3-.495-.453-.752a76 76 0 0 0-2.569-3.953c-.444-.743-.473-1.254-.301-2.092.46-1.21 1.121-1.495 2.243-2.04 1.252-.64 2.44-1.392 3.636-2.128q.677-.419 1.36-.83c1.727-1.064 3.365-2.178 4.931-3.47m0 31.751c.585.878.792 1.598 1.072 2.617l.153.558c.17.608.336 1.217.506 1.826l.349 1.27q.465 1.673.923 3.347l.94 3.4 1.37 4.968c.093.336.185.67.278 1.014.077.277.154.555.23.844l.196.598c.069.46.069.46-.42 1.214-.956 1.048-2.123 1.773-3.316 2.522l-.661.436c-1.257.796-2.204 1.368-3.736 1.05-1.35-.99-2.08-2.508-2.895-3.937l-.91-1.563-.474-.815c-.801-1.37-1.627-2.728-2.452-4.085-.148-.249-.3-.495-.453-.752a76 76 0 0 0-2.569-3.953c-.444-.743-.473-1.254-.301-2.092.46-1.21 1.121-1.495 2.243-2.04 1.252-.64 2.44-1.392 3.636-2.128q.677-.419 1.36-.83c1.727-1.064 3.365-2.178 4.931-3.47m0 31.751c.585.878.792 1.598 1.072 2.617l.153.558c.17.608.336 1.217.506 1.826l.349 1.27q.465 1.673.923 3.347l.94 3.4 1.37 4.968c.093.336.185.67.278 1.014.077.277.154.555.23.844l.196.598c.069.46.069.46-.42 1.214-.956 1.048-2.123 1.773-3.316 2.522l-.661.436c-1.257.796-2.204 1.368-3.736 1.05-1.35-.99-2.08-2.508-2.895-3.937l-.91-1.563-.474-.815c-.801-1.37-1.627-2.728-2.452-4.085-.148-.249-.3-.495-.453-.752a73 73 0 0 0-2.571-3.95c-.434-.735-.453-1.267-.3-2.095.384-1.12 1.048-1.427 2.067-1.969.333-.182.67-.365 1-.55l.558-.31c1.175-.667 2.32-1.376 3.47-2.082l.698-.426c1.54-.95 2.973-1.99 4.378-3.13m0 31.75c.585.878.792 1.598 1.072 2.617l.153.558c.17.608.336 1.217.506 1.826l.349 1.27q.465 1.673.923 3.347l.94 3.4 1.37 4.968c.093.336.185.67.278 1.014.077.277.154.555.23.844l.196.598c.069.46.069.46-.42 1.214-.956 1.048-2.123 1.773-3.316 2.522l-.661.436c-1.257.796-2.204 1.368-3.736 1.05-1.35-.99-2.08-2.508-2.895-3.937l-.91-1.563-.474-.815c-.801-1.37-1.627-2.728-2.452-4.085-.148-.249-.3-.495-.453-.752a77 77 0 0 0-2.566-3.955c-.46-.762-.516-1.228-.304-2.09.833-1.382 1.862-1.93 3.272-2.657 1.292-.68 2.53-1.455 3.77-2.222.236-.143.47-.283.71-.432 1.553-.96 3-2.005 4.418-3.156"/></svg>